<svg width="110" height="110" viewBox="0 0 110 110" fill="none" xmlns="http://www.w3.org/2000/svg">
<path d="M42.6501 39.4482C42.3247 39.8003 41.8662 39.9764 41.277 39.9764H39.5052C39.0917 39.9764 38.6776 39.8444 38.2655 39.5801C37.8514 39.3162 37.6151 38.8623 37.5568 38.2156C37.2021 35.2824 35.6217 32.8617 32.8179 30.954C30.0122 29.0478 26.4846 28.093 22.2331 28.093C17.6853 28.093 14.0686 28.9734 11.3825 30.7338C8.69457 32.4943 7.35199 35.1351 7.35199 38.656C7.35199 40.9446 7.95718 42.8368 9.16787 44.3336C10.378 45.8304 12.1929 47.1217 14.6155 48.2066C17.0363 49.2934 20.6083 50.5985 25.3331 52.1238C30.1743 53.6505 33.9543 55.1167 36.6712 56.5247C39.3863 57.933 41.4391 59.6362 42.827 61.6303C44.214 63.6259 44.9085 66.2073 44.9085 69.3758C44.9085 74.6571 42.9296 78.7803 38.9743 81.743C35.0174 84.7072 29.5851 86.1884 22.6759 86.1884C18.0701 86.1884 14.0686 85.4406 10.6738 83.9438C7.27743 82.4479 4.67946 80.4973 2.87897 78.0901C1.07696 75.6845 0.117719 73.1033 0 70.3443C0 69.8752 0.177484 69.464 0.532149 69.1118C0.885909 68.76 1.32901 68.5839 1.86056 68.5839H3.63177C4.69486 68.5839 5.34383 69.1712 5.58078 70.3446C5.99279 73.1612 7.6182 75.626 10.4525 77.7383C13.2868 79.8509 17.3617 80.9073 22.6759 80.9073C28.2854 80.9073 32.4635 79.8947 35.2094 77.8706C37.9552 75.8459 39.3283 73.0152 39.3283 69.3758C39.3283 67.1465 38.664 65.3135 37.3356 63.8743C36.0068 62.4375 34.0717 61.1762 31.5332 60.0894C28.9938 59.0045 25.1562 57.64 20.0185 55.9962C15.471 54.5303 11.9134 53.0911 9.34505 51.6831C6.77666 50.2751 4.87234 48.5444 3.63177 46.4897C2.3921 44.4365 1.77182 41.8247 1.77182 38.6557C1.77182 35.6627 2.58317 32.9646 4.20769 30.5577C5.831 28.1521 8.17813 26.2597 11.2491 24.8801C14.3194 23.5021 17.9817 22.8116 22.2331 22.8116C26.6023 22.8116 30.3515 23.5903 33.4825 25.1441C36.6117 26.6997 38.9743 28.665 40.5689 31.0419C42.1635 33.4187 43.0181 35.81 43.1376 38.2156C43.1373 38.6866 42.974 39.096 42.6501 39.4482Z" fill="#2C2C2C"/>
<path d="M55.7024 85.6598C55.3483 85.308 55.1711 84.8376 55.1711 84.2515V83.0196C55.1711 82.4335 55.3483 81.9631 55.7024 81.6116C56.0571 81.2591 56.5285 81.0828 57.1195 81.0828H108.051C108.641 81.0828 109.114 81.2591 109.468 81.6116C109.823 81.9631 110 82.4335 110 83.0196V84.2515C110 84.8376 109.823 85.308 109.468 85.6598C109.114 86.0123 108.641 86.1883 108.051 86.1883H57.1195C56.5285 86.188 56.0568 86.012 55.7024 85.6598Z" fill="#2C2C2C"/>
</svg>
